<mxfile host="Electron" modified="2023-05-29T03:16:38.233Z" agent="Mozilla/5.0 (Windows NT 10.0; Win64; x64) AppleWebKit/537.36 (KHTML, like Gecko) draw.io/21.2.8 Chrome/112.0.5615.165 Electron/24.2.0 Safari/537.36" etag="v8tteljRWbAdcnPaoosG" version="21.2.8" type="device">
  <diagram id="C5RBs43oDa-KdzZeNtuy" name="Page-1">
    <mxGraphModel dx="520" dy="502" grid="1" gridSize="10" guides="1" tooltips="1" connect="1" arrows="1" fold="1" page="1" pageScale="1" pageWidth="827" pageHeight="1169" math="0" shadow="0">
      <root>
        <mxCell id="WIyWlLk6GJQsqaUBKTNV-0" />
        <mxCell id="WIyWlLk6GJQsqaUBKTNV-1" parent="WIyWlLk6GJQsqaUBKTNV-0" />
        <mxCell id="WIyWlLk6GJQsqaUBKTNV-10" value="NEW-RECORD-PROMPT" style="rhombus;whiteSpace=wrap;html=1;shadow=0;fontFamily=Helvetica;fontSize=12;align=center;strokeWidth=1;spacing=6;spacingTop=-4;" parent="WIyWlLk6GJQsqaUBKTNV-1" vertex="1">
          <mxGeometry x="75" y="410" width="120" height="90" as="geometry" />
        </mxCell>
        <mxCell id="xrgGbvrsey5N0w-o3Qg6-4" value="Stop" style="strokeWidth=2;html=1;shape=mxgraph.flowchart.terminator;whiteSpace=wrap;" vertex="1" parent="WIyWlLk6GJQsqaUBKTNV-1">
          <mxGeometry x="70" y="624.5" width="130" height="50" as="geometry" />
        </mxCell>
        <mxCell id="xrgGbvrsey5N0w-o3Qg6-88" style="edgeStyle=orthogonalEdgeStyle;rounded=0;orthogonalLoop=1;jettySize=auto;html=1;exitX=0.75;exitY=0;exitDx=0;exitDy=0;" edge="1" parent="WIyWlLk6GJQsqaUBKTNV-1" source="xrgGbvrsey5N0w-o3Qg6-5">
          <mxGeometry relative="1" as="geometry">
            <mxPoint x="165" y="130" as="targetPoint" />
          </mxGeometry>
        </mxCell>
        <mxCell id="xrgGbvrsey5N0w-o3Qg6-120" style="edgeStyle=orthogonalEdgeStyle;rounded=0;orthogonalLoop=1;jettySize=auto;html=1;" edge="1" parent="WIyWlLk6GJQsqaUBKTNV-1" source="xrgGbvrsey5N0w-o3Qg6-11">
          <mxGeometry relative="1" as="geometry">
            <mxPoint x="140" y="380" as="targetPoint" />
            <Array as="points">
              <mxPoint x="320" y="380" />
            </Array>
          </mxGeometry>
        </mxCell>
        <mxCell id="xrgGbvrsey5N0w-o3Qg6-11" value="202-CREATE-STUDENT-RECORDS" style="rounded=0;whiteSpace=wrap;html=1;" vertex="1" parent="WIyWlLk6GJQsqaUBKTNV-1">
          <mxGeometry x="260" y="420" width="120" height="66.5" as="geometry" />
        </mxCell>
        <mxCell id="xrgGbvrsey5N0w-o3Qg6-30" value="203-CLOSE-STUDENT-FILE" style="rounded=0;whiteSpace=wrap;html=1;" vertex="1" parent="WIyWlLk6GJQsqaUBKTNV-1">
          <mxGeometry x="75" y="530" width="120" height="60" as="geometry" />
        </mxCell>
        <mxCell id="xrgGbvrsey5N0w-o3Qg6-3" value="100-CREATE-STUDENT-RECORDS" style="strokeWidth=2;html=1;shape=mxgraph.flowchart.terminator;whiteSpace=wrap;" vertex="1" parent="WIyWlLk6GJQsqaUBKTNV-1">
          <mxGeometry x="60" y="20" width="150" height="60" as="geometry" />
        </mxCell>
        <mxCell id="xrgGbvrsey5N0w-o3Qg6-52" value="301-OPEN-STUDENT-FILE" style="rounded=0;whiteSpace=wrap;html=1;" vertex="1" parent="WIyWlLk6GJQsqaUBKTNV-1">
          <mxGeometry x="75" y="200" width="120" height="60" as="geometry" />
        </mxCell>
        <mxCell id="xrgGbvrsey5N0w-o3Qg6-63" value="202-CREATE-STUDENT-RECORDS" style="rounded=0;whiteSpace=wrap;html=1;" vertex="1" parent="WIyWlLk6GJQsqaUBKTNV-1">
          <mxGeometry x="435" y="90" width="120" height="60" as="geometry" />
        </mxCell>
        <mxCell id="xrgGbvrsey5N0w-o3Qg6-64" value="303-PROMPT-STUDENT-DATA" style="rounded=0;whiteSpace=wrap;html=1;" vertex="1" parent="WIyWlLk6GJQsqaUBKTNV-1">
          <mxGeometry x="435" y="210" width="120" height="60" as="geometry" />
        </mxCell>
        <mxCell id="xrgGbvrsey5N0w-o3Qg6-125" value="" style="edgeStyle=orthogonalEdgeStyle;rounded=0;orthogonalLoop=1;jettySize=auto;html=1;" edge="1" parent="WIyWlLk6GJQsqaUBKTNV-1" source="xrgGbvrsey5N0w-o3Qg6-65" target="xrgGbvrsey5N0w-o3Qg6-66">
          <mxGeometry relative="1" as="geometry">
            <Array as="points">
              <mxPoint x="495" y="430" />
              <mxPoint x="495" y="430" />
            </Array>
          </mxGeometry>
        </mxCell>
        <mxCell id="xrgGbvrsey5N0w-o3Qg6-65" value="304-WRITE-STUDENT-RECORD" style="rounded=0;whiteSpace=wrap;html=1;" vertex="1" parent="WIyWlLk6GJQsqaUBKTNV-1">
          <mxGeometry x="435" y="318" width="120" height="52" as="geometry" />
        </mxCell>
        <mxCell id="xrgGbvrsey5N0w-o3Qg6-126" style="edgeStyle=orthogonalEdgeStyle;rounded=0;orthogonalLoop=1;jettySize=auto;html=1;" edge="1" parent="WIyWlLk6GJQsqaUBKTNV-1" source="xrgGbvrsey5N0w-o3Qg6-66">
          <mxGeometry relative="1" as="geometry">
            <mxPoint x="497.5" y="540" as="targetPoint" />
            <Array as="points">
              <mxPoint x="498" y="540" />
              <mxPoint x="498" y="540" />
            </Array>
          </mxGeometry>
        </mxCell>
        <mxCell id="xrgGbvrsey5N0w-o3Qg6-66" value="302-PROMPT-NEW-RECORD" style="rounded=0;whiteSpace=wrap;html=1;" vertex="1" parent="WIyWlLk6GJQsqaUBKTNV-1">
          <mxGeometry x="435" y="430" width="125" height="60" as="geometry" />
        </mxCell>
        <mxCell id="xrgGbvrsey5N0w-o3Qg6-79" value="" style="endArrow=none;html=1;rounded=0;" edge="1" parent="WIyWlLk6GJQsqaUBKTNV-1">
          <mxGeometry width="50" height="50" relative="1" as="geometry">
            <mxPoint x="543" y="490" as="sourcePoint" />
            <mxPoint x="543" y="430" as="targetPoint" />
          </mxGeometry>
        </mxCell>
        <mxCell id="xrgGbvrsey5N0w-o3Qg6-80" value="Return" style="strokeWidth=2;html=1;shape=mxgraph.flowchart.terminator;whiteSpace=wrap;" vertex="1" parent="WIyWlLk6GJQsqaUBKTNV-1">
          <mxGeometry x="432.5" y="540" width="130" height="60" as="geometry" />
        </mxCell>
        <mxCell id="xrgGbvrsey5N0w-o3Qg6-5" value="201-INITIALIZE-STUEDT-RECORDS" style="rounded=0;whiteSpace=wrap;html=1;" vertex="1" parent="WIyWlLk6GJQsqaUBKTNV-1">
          <mxGeometry x="77.5" y="110" width="120" height="60" as="geometry" />
        </mxCell>
        <mxCell id="xrgGbvrsey5N0w-o3Qg6-101" value="" style="endArrow=classic;html=1;rounded=0;exitX=0.5;exitY=1;exitDx=0;exitDy=0;exitPerimeter=0;" edge="1" parent="WIyWlLk6GJQsqaUBKTNV-1" source="xrgGbvrsey5N0w-o3Qg6-3">
          <mxGeometry width="50" height="50" relative="1" as="geometry">
            <mxPoint x="270" y="210" as="sourcePoint" />
            <mxPoint x="135" y="110" as="targetPoint" />
          </mxGeometry>
        </mxCell>
        <mxCell id="xrgGbvrsey5N0w-o3Qg6-102" value="" style="endArrow=classic;html=1;rounded=0;entryX=0.5;entryY=0;entryDx=0;entryDy=0;" edge="1" parent="WIyWlLk6GJQsqaUBKTNV-1" target="xrgGbvrsey5N0w-o3Qg6-52">
          <mxGeometry width="50" height="50" relative="1" as="geometry">
            <mxPoint x="135" y="170" as="sourcePoint" />
            <mxPoint x="130" y="200" as="targetPoint" />
          </mxGeometry>
        </mxCell>
        <mxCell id="xrgGbvrsey5N0w-o3Qg6-105" value="" style="endArrow=classic;html=1;rounded=0;exitX=0.5;exitY=1;exitDx=0;exitDy=0;" edge="1" parent="WIyWlLk6GJQsqaUBKTNV-1" source="xrgGbvrsey5N0w-o3Qg6-52">
          <mxGeometry width="50" height="50" relative="1" as="geometry">
            <mxPoint x="270" y="410" as="sourcePoint" />
            <mxPoint x="135" y="300" as="targetPoint" />
          </mxGeometry>
        </mxCell>
        <mxCell id="xrgGbvrsey5N0w-o3Qg6-106" value="" style="endArrow=classic;html=1;rounded=0;entryX=0.5;entryY=0;entryDx=0;entryDy=0;" edge="1" parent="WIyWlLk6GJQsqaUBKTNV-1" target="WIyWlLk6GJQsqaUBKTNV-10">
          <mxGeometry width="50" height="50" relative="1" as="geometry">
            <mxPoint x="135" y="360" as="sourcePoint" />
            <mxPoint x="320" y="360" as="targetPoint" />
            <Array as="points" />
          </mxGeometry>
        </mxCell>
        <mxCell id="xrgGbvrsey5N0w-o3Qg6-107" value="" style="endArrow=classic;html=1;rounded=0;exitX=0.5;exitY=1;exitDx=0;exitDy=0;entryX=0.5;entryY=0;entryDx=0;entryDy=0;" edge="1" parent="WIyWlLk6GJQsqaUBKTNV-1" source="WIyWlLk6GJQsqaUBKTNV-10" target="xrgGbvrsey5N0w-o3Qg6-30">
          <mxGeometry width="50" height="50" relative="1" as="geometry">
            <mxPoint x="270" y="430" as="sourcePoint" />
            <mxPoint x="320" y="380" as="targetPoint" />
          </mxGeometry>
        </mxCell>
        <mxCell id="xrgGbvrsey5N0w-o3Qg6-108" value="" style="endArrow=classic;html=1;rounded=0;exitX=0.5;exitY=1;exitDx=0;exitDy=0;entryX=0.5;entryY=0;entryDx=0;entryDy=0;entryPerimeter=0;" edge="1" parent="WIyWlLk6GJQsqaUBKTNV-1" source="xrgGbvrsey5N0w-o3Qg6-30" target="xrgGbvrsey5N0w-o3Qg6-4">
          <mxGeometry width="50" height="50" relative="1" as="geometry">
            <mxPoint x="270" y="430" as="sourcePoint" />
            <mxPoint x="320" y="380" as="targetPoint" />
          </mxGeometry>
        </mxCell>
        <mxCell id="xrgGbvrsey5N0w-o3Qg6-99" value="302-PROMPT-NEW-RECORD" style="rounded=0;whiteSpace=wrap;html=1;" vertex="1" parent="WIyWlLk6GJQsqaUBKTNV-1">
          <mxGeometry x="70" y="300" width="130" height="60" as="geometry" />
        </mxCell>
        <mxCell id="xrgGbvrsey5N0w-o3Qg6-123" value="" style="endArrow=classic;html=1;rounded=0;exitX=0.5;exitY=1;exitDx=0;exitDy=0;" edge="1" parent="WIyWlLk6GJQsqaUBKTNV-1" source="xrgGbvrsey5N0w-o3Qg6-63">
          <mxGeometry width="50" height="50" relative="1" as="geometry">
            <mxPoint x="480" y="240" as="sourcePoint" />
            <mxPoint x="495" y="210" as="targetPoint" />
          </mxGeometry>
        </mxCell>
        <mxCell id="xrgGbvrsey5N0w-o3Qg6-124" value="" style="endArrow=classic;html=1;rounded=0;entryX=0.5;entryY=0;entryDx=0;entryDy=0;" edge="1" parent="WIyWlLk6GJQsqaUBKTNV-1" source="xrgGbvrsey5N0w-o3Qg6-64" target="xrgGbvrsey5N0w-o3Qg6-65">
          <mxGeometry width="50" height="50" relative="1" as="geometry">
            <mxPoint x="480" y="240" as="sourcePoint" />
            <mxPoint x="530" y="190" as="targetPoint" />
          </mxGeometry>
        </mxCell>
        <mxCell id="xrgGbvrsey5N0w-o3Qg6-128" value="" style="endArrow=none;html=1;rounded=0;entryX=0.897;entryY=0.017;entryDx=0;entryDy=0;entryPerimeter=0;" edge="1" parent="WIyWlLk6GJQsqaUBKTNV-1" target="xrgGbvrsey5N0w-o3Qg6-99">
          <mxGeometry width="50" height="50" relative="1" as="geometry">
            <mxPoint x="187" y="360" as="sourcePoint" />
            <mxPoint x="187" y="310" as="targetPoint" />
          </mxGeometry>
        </mxCell>
        <mxCell id="xrgGbvrsey5N0w-o3Qg6-130" value="Fei Lan 05-25-2023&lt;br&gt;Project1-Flowcharts" style="text;html=1;align=center;verticalAlign=middle;resizable=0;points=[];autosize=1;strokeColor=none;fillColor=none;" vertex="1" parent="WIyWlLk6GJQsqaUBKTNV-1">
          <mxGeometry x="250" y="55" width="130" height="40" as="geometry" />
        </mxCell>
        <mxCell id="xrgGbvrsey5N0w-o3Qg6-133" value="Yes" style="text;html=1;align=center;verticalAlign=middle;resizable=0;points=[];autosize=1;strokeColor=none;fillColor=none;" vertex="1" parent="WIyWlLk6GJQsqaUBKTNV-1">
          <mxGeometry x="197.5" y="420" width="40" height="30" as="geometry" />
        </mxCell>
        <mxCell id="xrgGbvrsey5N0w-o3Qg6-136" value="" style="endArrow=classic;html=1;rounded=0;exitX=0.046;exitY=1.211;exitDx=0;exitDy=0;exitPerimeter=0;" edge="1" parent="WIyWlLk6GJQsqaUBKTNV-1" source="xrgGbvrsey5N0w-o3Qg6-133">
          <mxGeometry width="50" height="50" relative="1" as="geometry">
            <mxPoint x="210" y="470" as="sourcePoint" />
            <mxPoint x="260" y="456" as="targetPoint" />
          </mxGeometry>
        </mxCell>
        <mxCell id="xrgGbvrsey5N0w-o3Qg6-137" value="no" style="text;html=1;align=center;verticalAlign=middle;resizable=0;points=[];autosize=1;strokeColor=none;fillColor=none;" vertex="1" parent="WIyWlLk6GJQsqaUBKTNV-1">
          <mxGeometry x="140" y="488" width="40" height="30" as="geometry" />
        </mxCell>
      </root>
    </mxGraphModel>
  </diagram>
</mxfile>
